<svg width="691" height="457" viewBox="0 0 691 457" fill="none" xmlns="http://www.w3.org/2000/svg">
<path d="M366 307C356.667 352.333 339.333 388.667 314 416C288.667 443.333 250.333 457 199 457C129.667 457 79 433 47 385C15.6667 337.667 0 272.333 0 189V5.72205e-06L691 5.72205e-06V165C691 250.333 676.333 315.667 647 361C618.333 407 574.333 430 515 430C475 430 442.333 418.333 417 395C392.333 372.333 375.333 343 366 307ZM596 130L406 130V189C406 225 414.333 252.333 431 271C447.667 289.667 472 299 504 299C536.667 299 560 289 574 269C588.667 249.667 596 219 596 177V130ZM97 190C97 233.333 105 266.333 121 289C137 311.667 164.667 323 204 323C278.667 323 316 281.333 316 198V130H97V190Z" fill="black"/>
</svg>
