<svg width="457" height="692" viewBox="0 0 457 692" fill="currentColor" xmlns="http://www.w3.org/2000/svg">
<path d="M307 325.5C352.333 334.833 388.667 352.167 416 377.5C443.333 402.833 457 441.167 457 492.5C457 561.833 433 612.5 385 644.5C337.667 675.833 272.333 691.5 189 691.5H5.72205e-06V0.499956H165C250.333 0.499956 315.667 15.1666 361 44.5C407 73.1666 430 117.167 430 176.5C430 216.5 418.333 249.167 395 274.5C372.333 299.167 343 316.167 307 325.5ZM130 95.5V285.5H189C225 285.5 252.333 277.167 271 260.5C289.667 243.833 299 219.5 299 187.5C299 154.833 289 131.5 269 117.5C249.667 102.833 219 95.5 177 95.5H130ZM190 594.5C233.333 594.5 266.333 586.5 289 570.5C311.667 554.5 323 526.833 323 487.5C323 412.833 281.333 375.5 198 375.5H130V594.5H190Z"/>
</svg>
