<svg width="691" height="1087" viewBox="0 0 691 1087" fill="none" xmlns="http://www.w3.org/2000/svg">
<path d="M0 467V301L563 99L536 102C442.667 111.333 359.667 116 287 116H0V5.72205e-06L691 5.72205e-06V164L128 368C154 364 188.667 360 232 356C276 352.667 319.667 351 363 351H691V467H0ZM691 766.469C691 829.135 682 883.469 664 929.469C646 976.135 611.667 1013.8 561 1042.47C511 1071.8 440.333 1086.47 349 1086.47C219.667 1086.47 129 1057.8 77 1000.47C25.6667 943.802 0 870.802 0 781.469V605.469H691V766.469ZM594 735.469H97V790.469C97 841.802 115 881.469 151 909.469C187 938.135 253 952.469 349 952.469C415.667 952.469 467 945.135 503 930.469C539 916.469 563 897.469 575 873.469C587.667 850.135 594 821.469 594 787.469V735.469Z" fill="black"/>
</svg>
