<svg width="1087" height="692" viewBox="0 0 1087 692" fill="currentColor" xmlns="http://www.w3.org/2000/svg">
<path d="M467 691.5H301L99 128.5L102 155.5C111.333 248.833 116 331.833 116 404.5V691.5H5.72205e-06V0.499956H164L368 563.5C364 537.5 360 502.833 356 459.5C352.667 415.5 351 371.833 351 328.5V0.499956H467V691.5ZM766.469 0.499956C829.135 0.499956 883.469 9.49996 929.469 27.5C976.135 45.5 1013.8 79.8333 1042.47 130.5C1071.8 180.5 1086.47 251.167 1086.47 342.5C1086.47 471.833 1057.8 562.5 1000.47 614.5C943.802 665.833 870.802 691.5 781.469 691.5H605.469V0.499956H766.469ZM735.469 97.5V594.5H790.469C841.802 594.5 881.469 576.5 909.469 540.5C938.135 504.5 952.469 438.5 952.469 342.5C952.469 275.833 945.135 224.5 930.469 188.5C916.469 152.5 897.469 128.5 873.469 116.5C850.135 103.833 821.469 97.5 787.469 97.5H735.469Z"/>
</svg>
