<svg width="692" height="1025" viewBox="0 0 692 1025" fill="none" xmlns="http://www.w3.org/2000/svg">
<path d="M278.5 201.5V130.5H0.5V0.500006L691.5 0.500006V182.5C691.5 356.5 623.833 443.5 488.5 443.5C444.5 443.5 406.5 433.167 374.5 412.5C343.167 391.833 319.167 360.833 302.5 319.5L0.5 480.5V337.5L278.5 201.5ZM371.5 189.5C371.5 230.833 380.833 261.167 399.5 280.5C418.167 299.833 447.833 309.5 488.5 309.5C525.833 309.5 553.167 299.167 570.5 278.5C587.833 258.5 596.5 226.167 596.5 181.5V130.5L371.5 130.5V189.5ZM0.5 890.188L161.5 852.188V652.188L0.5 614.188V483.187L691.5 675.188V833.188L0.5 1024.19V890.188ZM259.5 674.188V830.188L592.5 752.188L259.5 674.188Z" fill="#020202"/>
</svg>
