<svg width="1024" height="692" viewBox="0 0 1024 692" fill="currentColor" xmlns="http://www.w3.org/2000/svg">
<path d="M201 413.5H130V691.5H5.72205e-06V0.499956H182C356 0.499956 443 68.1666 443 203.5C443 247.5 432.667 285.5 412 317.5C391.333 348.833 360.333 372.833 319 389.5L480 691.5H337L201 413.5ZM189 320.5C230.333 320.5 260.667 311.167 280 292.5C299.333 273.833 309 244.167 309 203.5C309 166.167 298.667 138.833 278 121.5C258 104.167 225.667 95.5 181 95.5H130V320.5H189ZM889.688 691.5L851.688 530.5H651.688L613.688 691.5H482.687L674.688 0.499956H832.688L1023.69 691.5H889.688ZM673.688 432.5H829.688L751.688 99.5L673.688 432.5Z"/>
</svg>
