<svg width="24" height="24" viewBox="0 0 24 24" fill="none" xmlns="http://www.w3.org/2000/svg">
<mask id="mask0_904_1291" style="mask-type:alpha" maskUnits="userSpaceOnUse" x="0" y="0" width="24" height="24">
<path d="M24 24H0V0H24V24ZM12.0034 3.08166C9.58129 3.08166 9.27707 3.09224 8.32542 3.13552C7.37547 3.17898 6.72704 3.32926 6.15966 3.54977C5.57276 3.77752 5.0749 4.08217 4.57891 4.57798C4.08256 5.07361 3.77766 5.57108 3.549 6.15736C3.32777 6.7245 3.17719 7.37264 3.13444 8.32153C3.09187 9.27265 3.08072 9.57677 3.08072 11.9984C3.08072 14.42 3.0915 14.723 3.13462 15.6741C3.17832 16.6234 3.32871 17.2714 3.54919 17.8383C3.77729 18.4248 4.08218 18.9223 4.57835 19.4179C5.07416 19.9139 5.57201 20.2193 6.15853 20.447C6.72628 20.6675 7.37492 20.8178 8.3247 20.8613C9.27652 20.9046 9.58048 20.9152 12.0037 20.9152C14.4273 20.9152 14.7306 20.9046 15.6824 20.8613C16.6324 20.8178 17.2815 20.6675 17.8493 20.447C18.436 20.2193 18.9331 19.9139 19.4289 19.4179C19.9253 18.9223 20.2301 18.4248 20.4588 17.8385C20.6782 17.2714 20.8288 16.6232 20.8734 15.6743C20.9161 14.7232 20.9273 14.42 20.9273 11.9984C20.9273 9.57676 20.9161 9.27284 20.8734 8.32172C20.8288 7.37245 20.6782 6.7245 20.4588 6.15755C20.2301 5.57108 19.9253 5.0736 19.4289 4.57798C18.9325 4.08198 18.4362 3.77733 17.8487 3.54977C17.2799 3.32927 16.6311 3.17898 15.6811 3.13552C14.7294 3.09224 14.4263 3.08166 12.0034 3.08166ZM11.2043 4.68853C11.4419 4.68816 11.707 4.68853 12.0048 4.68853C14.3874 4.68853 14.6698 4.69707 15.6106 4.73979C16.4806 4.77955 16.9528 4.92482 17.2674 5.04687C17.6838 5.20848 17.9807 5.40167 18.2929 5.71376C18.6052 6.02585 18.7985 6.32307 18.9606 6.73917C19.0827 7.05311 19.2283 7.52497 19.2679 8.39435C19.3107 9.33432 19.32 9.61671 19.32 11.9964C19.32 14.376 19.3107 14.6584 19.2679 15.5984C19.2281 16.4677 19.0827 16.9396 18.9606 17.2535C18.7989 17.6696 18.6052 17.9659 18.2929 18.2778C17.9805 18.5899 17.684 18.7831 17.2674 18.9447C16.9532 19.0674 16.4806 19.2122 15.6106 19.252C14.67 19.2947 14.3874 19.304 12.0048 19.304C9.62211 19.304 9.33971 19.2947 8.39904 19.252C7.52903 19.2119 7.05684 19.0666 6.7421 18.9446C6.32568 18.7829 6.02822 18.5897 5.71591 18.2776C5.4036 17.9656 5.21025 17.6691 5.04813 17.2528C4.92599 16.9388 4.78044 16.467 4.74084 15.5976C4.69808 14.6576 4.68954 14.3753 4.68954 11.9941C4.68954 9.61299 4.69808 9.33209 4.74084 8.39213C4.78063 7.52275 4.92599 7.05091 5.04813 6.73659C5.20987 6.32048 5.40359 6.02324 5.71591 5.71116C6.02822 5.39907 6.32568 5.20588 6.7421 5.04389C7.05665 4.92128 7.52903 4.77639 8.39904 4.73644C9.22222 4.69928 9.54125 4.68815 11.2043 4.68628V4.68853ZM12.0047 7.41928C9.47407 7.41934 7.42233 9.46961 7.42233 11.9984C7.42233 14.5272 9.47413 16.5766 12.0048 16.5766C14.5355 16.5766 16.5866 14.5272 16.5866 11.9984C16.5866 9.4696 14.5354 7.41932 12.0047 7.41928ZM12.0048 9.02616C13.6475 9.02616 14.9793 10.3568 14.9793 11.9984C14.9793 13.6398 13.6475 14.9707 12.0048 14.9707C10.362 14.9707 9.03038 13.6398 9.03038 11.9984C9.03038 10.3568 10.362 9.02616 12.0048 9.02616ZM16.7681 6.16908C16.1769 6.16908 15.6972 6.64779 15.6972 7.2387C15.6972 7.82944 16.1769 8.30873 16.7681 8.30873C17.3592 8.30873 17.8389 7.82943 17.8389 7.2387C17.8389 6.64797 17.3592 6.1687 16.7681 6.1687L16.7681 6.16908Z" fill="#D9D9D9"/>
</mask>
<g mask="url(#mask0_904_1291)">
<path d="M12.0039 0C6.99403 0 5.52882 0.00517032 5.24402 0.0287999C4.21591 0.114284 3.57615 0.276208 2.87917 0.623305C2.34205 0.890106 1.91843 1.19936 1.50035 1.63287C0.73896 2.42346 0.277507 3.3961 0.110458 4.55226C0.0292467 5.11354 0.00561688 5.228 0.000818394 8.09496C-0.00102299 9.05061 0.000818394 10.3083 0.000818394 11.9953C0.000818394 17.0025 0.00635159 18.4666 0.0303531 18.7509C0.113415 19.7516 0.270305 20.3812 0.602552 21.0699C1.23751 22.3882 2.4502 23.3778 3.87886 23.7471C4.37354 23.8745 4.9199 23.9446 5.6213 23.9778C5.91848 23.9908 8.94744 24 11.9783 24C15.0091 24 18.0399 23.9963 18.3297 23.9815C19.1418 23.9433 19.6134 23.88 20.1349 23.7452C21.5728 23.3741 22.7633 22.3992 23.4112 21.0625C23.737 20.3905 23.9022 19.7369 23.9769 18.7884C23.9932 18.5816 24 15.2847 24 11.9922C24 8.69907 23.9926 5.40821 23.9764 5.20142C23.9007 4.23765 23.7355 3.5896 23.3992 2.90461C23.1232 2.34388 22.8168 1.92514 22.372 1.49699C21.5781 0.738523 20.6072 0.276943 19.4503 0.110039C18.8897 0.0289815 18.778 0.00497991 15.9096 0H12.0039Z" fill="white"/>
<path d="M12.0039 0C6.99403 0 5.52882 0.00517032 5.24402 0.0287999C4.21591 0.114284 3.57615 0.276208 2.87917 0.623305C2.34205 0.890106 1.91843 1.19936 1.50035 1.63287C0.73896 2.42346 0.277507 3.3961 0.110458 4.55226C0.0292467 5.11354 0.00561688 5.228 0.000818394 8.09496C-0.00102299 9.05061 0.000818394 10.3083 0.000818394 11.9953C0.000818394 17.0025 0.00635159 18.4666 0.0303531 18.7509C0.113415 19.7516 0.270305 20.3812 0.602552 21.0699C1.23751 22.3882 2.4502 23.3778 3.87886 23.7471C4.37354 23.8745 4.9199 23.9446 5.6213 23.9778C5.91848 23.9908 8.94744 24 11.9783 24C15.0091 24 18.0399 23.9963 18.3297 23.9815C19.1418 23.9433 19.6134 23.88 20.1349 23.7452C21.5728 23.3741 22.7633 22.3992 23.4112 21.0625C23.737 20.3905 23.9022 19.7369 23.9769 18.7884C23.9932 18.5816 24 15.2847 24 11.9922C24 8.69907 23.9926 5.40821 23.9764 5.20142C23.9007 4.23765 23.7355 3.5896 23.3992 2.90461C23.1232 2.34388 22.8168 1.92514 22.372 1.49699C21.5781 0.738523 20.6072 0.276943 19.4503 0.110039C18.8897 0.0289815 18.778 0.00497991 15.9096 0H12.0039Z" fill="white"/>
<path d="M12.0039 0C6.99403 0 5.52882 0.00517032 5.24402 0.0287999C4.21591 0.114284 3.57615 0.276208 2.87917 0.623305C2.34205 0.890106 1.91843 1.19936 1.50035 1.63287C0.73896 2.42346 0.277507 3.3961 0.110458 4.55226C0.0292467 5.11354 0.00561688 5.228 0.000818394 8.09496C-0.00102299 9.05061 0.000818394 10.3083 0.000818394 11.9953C0.000818394 17.0025 0.00635159 18.4666 0.0303531 18.7509C0.113415 19.7516 0.270305 20.3812 0.602552 21.0699C1.23751 22.3882 2.4502 23.3778 3.87886 23.7471C4.37354 23.8745 4.9199 23.9446 5.6213 23.9778C5.91848 23.9908 8.94744 24 11.9783 24C15.0091 24 18.0399 23.9963 18.3297 23.9815C19.1418 23.9433 19.6134 23.88 20.1349 23.7452C21.5728 23.3741 22.7633 22.3992 23.4112 21.0625C23.737 20.3905 23.9022 19.7369 23.9769 18.7884C23.9932 18.5816 24 15.2847 24 11.9922C24 8.69907 23.9926 5.40821 23.9764 5.20142C23.9007 4.23765 23.7355 3.5896 23.3992 2.90461C23.1232 2.34388 22.8168 1.92514 22.372 1.49699C21.5781 0.738523 20.6072 0.276943 19.4503 0.110039C18.8897 0.0289815 18.778 0.00497991 15.9096 0H12.0039Z" fill="white"/>
<path d="M12.0039 0C6.99403 0 5.52882 0.00517032 5.24402 0.0287999C4.21591 0.114284 3.57615 0.276208 2.87917 0.623305C2.34205 0.890106 1.91843 1.19936 1.50035 1.63287C0.73896 2.42346 0.277507 3.3961 0.110458 4.55226C0.0292467 5.11354 0.00561688 5.228 0.000818394 8.09496C-0.00102299 9.05061 0.000818394 10.3083 0.000818394 11.9953C0.000818394 17.0025 0.00635159 18.4666 0.0303531 18.7509C0.113415 19.7516 0.270305 20.3812 0.602552 21.0699C1.23751 22.3882 2.4502 23.3778 3.87886 23.7471C4.37354 23.8745 4.9199 23.9446 5.6213 23.9778C5.91848 23.9908 8.94744 24 11.9783 24C15.0091 24 18.0399 23.9963 18.3297 23.9815C19.1418 23.9433 19.6134 23.88 20.1349 23.7452C21.5728 23.3741 22.7633 22.3992 23.4112 21.0625C23.737 20.3905 23.9022 19.7369 23.9769 18.7884C23.9932 18.5816 24 15.2847 24 11.9922C24 8.69907 23.9926 5.40821 23.9764 5.20142C23.9007 4.23765 23.7355 3.5896 23.3992 2.90461C23.1232 2.34388 22.8168 1.92514 22.372 1.49699C21.5781 0.738523 20.6072 0.276943 19.4503 0.110039C18.8897 0.0289815 18.778 0.00497991 15.9096 0H12.0039Z" fill="white"/>
</g>
</svg>
