<svg width="24" height="24" viewBox="0 0 24 24" fill="none" xmlns="http://www.w3.org/2000/svg">
<g style="mix-blend-mode:difference">
<path d="M12.0139 5.76414C12.5221 5.76414 12.988 5.96183 13.3127 6.30085C13.6374 6.62572 13.8491 7.09194 13.8491 7.60042C13.8491 8.10888 13.6515 8.5609 13.3127 8.8999C12.988 9.22479 12.5221 9.4367 12.0139 9.4367C11.5057 9.43669 11.054 9.23891 10.7152 8.8999C10.3905 8.57503 10.1787 8.10889 10.1787 7.60042C10.1787 7.09193 10.3764 6.63986 10.7152 6.30085C11.0399 5.97597 11.5057 5.76414 12.0139 5.76414Z" fill="white"/>
<path fill-rule="evenodd" clip-rule="evenodd" d="M12.4941 0C17.9293 0 20.6398 -1.42701e-05 22.3201 1.69506C24 3.37596 24 6.1023 24 11.5268V12.4874C24 17.9257 24 20.6379 22.3201 22.3191C20.6402 24 17.9155 24 12.4941 24H11.5341C6.09899 24 3.3884 24 1.69406 22.3191C-1.44295e-05 20.6382 0 17.9119 0 12.4874L0.0140885 11.5409C0.0140885 6.10256 0.0140721 3.39039 1.70815 1.69506C3.38806 -1.49416e-05 6.11279 0 11.5341 0H12.4941ZM16.2916 11.6968C16.221 11.598 16.094 11.5839 16.0234 11.6686C14.894 12.6292 13.5105 13.2507 12.0282 13.2507C10.5459 13.2507 9.16237 12.6292 8.03296 11.6686C7.94826 11.598 7.82118 11.6121 7.75059 11.6968L6.55066 13.3213C6.49419 13.4061 6.50827 13.5191 6.57883 13.5756C7.58113 14.3948 8.75291 14.9457 9.96704 15.2283L7.6518 19.6637C7.58121 19.7908 7.68003 19.9462 7.8212 19.9462H10.2917C10.3623 19.9462 10.4328 19.9038 10.4611 19.8332L12.014 16.1747L13.5668 19.8332C13.5951 19.9038 13.6657 19.9462 13.7362 19.9462H16.1927C16.3339 19.9462 16.4327 19.7908 16.3621 19.6637L14.061 15.2283C15.2751 14.9458 16.4468 14.3949 17.4491 13.5756C17.5197 13.5191 17.5338 13.4061 17.4774 13.3213L16.2914 11.6968H16.2916ZM12.0139 3.53228C10.8846 3.53229 9.86819 3.98439 9.1341 4.71891C8.39996 5.45342 7.94818 6.47044 7.94817 7.60042C7.94817 8.73041 8.4 9.74749 9.1341 10.482C9.86818 11.2166 10.8846 11.6686 12.0139 11.6686C13.1432 11.6686 14.1597 11.2165 14.8938 10.482C15.628 9.74749 16.0798 8.73041 16.0798 7.60042C16.0797 6.47045 15.6279 5.45347 14.8938 4.71891C14.1597 3.98434 13.1432 3.53228 12.0139 3.53228Z" fill="white"/>
</g>
</svg>
