<svg width="24" height="24" viewBox="0 0 24 24" fill="none" xmlns="http://www.w3.org/2000/svg">
<g style="mix-blend-mode:difference">
<path fill-rule="evenodd" clip-rule="evenodd" d="M12 0C17.6569 0 20.4853 0 22.2426 1.75736C24 3.51472 24 6.34315 24 12C24 17.6569 24 20.4853 22.2426 22.2426C20.4853 24 17.6569 24 12 24C6.34315 24 3.51472 24 1.75736 22.2426C0 20.4853 0 17.6569 0 12C0 6.34315 0 3.51472 1.75736 1.75736C3.51472 0 6.34315 0 12 0ZM16.95 6.53283C17.1285 6.45772 17.3238 6.43181 17.5157 6.45781C17.7076 6.48381 17.889 6.56076 18.0411 6.68066C18.1931 6.80056 18.3103 6.95903 18.3803 7.13956C18.4503 7.32009 18.4707 7.5161 18.4392 7.70717L16.8012 17.6428C16.6424 18.6012 15.5908 19.1508 14.7119 18.6734C13.9766 18.274 12.8846 17.6587 11.9024 17.0166C11.4113 16.6952 9.90691 15.6661 10.0918 14.9337C10.2507 14.3076 12.7785 11.9546 14.2229 10.5556C14.7899 10.006 14.5313 9.68895 13.8618 10.1945C12.1992 11.4497 9.52991 13.3586 8.64736 13.8959C7.8688 14.3697 7.46291 14.4506 6.97758 14.3697C6.09213 14.2223 5.27097 13.9941 4.60074 13.7161C3.69508 13.3405 3.73913 12.0954 4.60002 11.7328L16.95 6.53283Z" fill="white"/>
</g>
</svg>
